<svg width="125" height="16" viewBox="0 0 125 16" fill="none" xmlns="http://www.w3.org/2000/svg">
<path d="M9.75746 4.84375C9.79534 4.30871 9.65329 3.89441 9.33132 3.60085C9.01409 3.30729 8.51219 3.16051 7.82564 3.16051C7.37109 3.16051 6.98284 3.2197 6.66087 3.33807C6.3389 3.4517 6.08558 3.61269 5.90092 3.82102C5.71626 4.02462 5.60026 4.26136 5.55291 4.53125C5.5103 4.74432 5.52214 4.93371 5.58842 5.09943C5.65471 5.26515 5.77071 5.41193 5.93643 5.53977C6.10689 5.66761 6.31759 5.77888 6.56854 5.87358C6.82422 5.96828 7.11068 6.05114 7.42791 6.12216L8.62109 6.40625C9.31238 6.5625 9.91134 6.77083 10.418 7.03125C10.9293 7.28693 11.3436 7.59706 11.6609 7.96165C11.9781 8.3215 12.1959 8.7358 12.3143 9.20455C12.4326 9.6733 12.4421 10.1989 12.3427 10.7812C12.1912 11.6998 11.829 12.4882 11.256 13.1463C10.6879 13.8045 9.94448 14.3087 9.02592 14.6591C8.1121 15.0095 7.04912 15.1847 5.837 15.1847C4.62488 15.1847 3.59505 15.0024 2.74751 14.6378C1.90471 14.2685 1.29392 13.7121 0.915128 12.9688C0.53634 12.2254 0.434541 11.2879 0.60973 10.1562H3.96911C3.91702 10.625 3.97621 11.0156 4.14666 11.3281C4.32185 11.6406 4.59174 11.8774 4.95632 12.0384C5.3209 12.1993 5.76125 12.2798 6.27734 12.2798C6.75083 12.2798 7.16513 12.2159 7.52024 12.0881C7.88009 11.9602 8.16655 11.7827 8.37962 11.5554C8.59742 11.3281 8.73 11.0677 8.77734 10.7741C8.82469 10.5043 8.77971 10.2699 8.6424 10.071C8.50983 9.87216 8.28255 9.69934 7.96058 9.55256C7.64335 9.40578 7.22668 9.2732 6.71058 9.15483L5.25462 8.79972C4.05197 8.50616 3.14051 8.03741 2.52024 7.39347C1.90471 6.74953 1.68691 5.87595 1.86683 4.77273C2.01835 3.86837 2.3924 3.07765 2.98899 2.40057C3.59032 1.72348 4.35026 1.19792 5.26882 0.823864C6.19212 0.445075 7.20774 0.255681 8.3157 0.255681C9.44259 0.255681 10.3896 0.447443 11.1566 0.830965C11.9284 1.20975 12.4847 1.74479 12.8256 2.43608C13.1713 3.12263 13.2707 3.92519 13.1239 4.84375H9.75746ZM16.1193 15H12.3409L19.6634 0.454545H24.3438L26.8366 15H23.0582L21.4602 4.11932H21.3466L16.1193 15ZM16.5739 9.27557H24.4716L24.017 11.946H16.1193L16.5739 9.27557ZM28.4027 15L30.8175 0.454545H40.7464L40.2635 3.30966H33.8501L33.3672 6.29261H39.1484L38.6655 9.15483H32.8842L31.9183 15H28.4027ZM40.1019 15L42.5167 0.454545H52.6587L52.1758 3.30966H45.5494L45.0664 6.29261H51.1744L50.6914 9.15483H44.5835L44.1005 12.1449H50.7269L50.244 15H40.1019ZM53.9016 3.30966L54.3846 0.454545H66.6786L66.1957 3.30966H61.7852L59.8533 15H56.3874L58.3192 3.30966H53.9016ZM65.9808 15L68.3956 0.454545H74.4041C75.4931 0.454545 76.4022 0.651041 77.1314 1.04403C77.8606 1.43229 78.379 1.991 78.6868 2.72017C78.9946 3.4446 79.0656 4.30398 78.8999 5.2983C78.7389 6.30208 78.379 7.15672 77.8203 7.86222C77.2663 8.56297 76.5514 9.09801 75.6754 9.46733C74.8042 9.83665 73.8146 10.0213 72.7067 10.0213H68.907L69.3757 7.25142H72.522C73.0476 7.25142 73.5021 7.18276 73.8857 7.04545C74.2692 6.90341 74.5746 6.69034 74.8018 6.40625C75.0339 6.11742 75.1877 5.74811 75.2635 5.2983C75.3345 4.84848 75.3014 4.4768 75.1641 4.18324C75.0315 3.88494 74.7971 3.66241 74.4609 3.51562C74.1295 3.36411 73.7034 3.28835 73.1825 3.28835H71.4496L69.4964 15H65.9808ZM75.2706 8.35227L77.7919 15H73.9567L71.5135 8.35227H75.2706ZM82.5256 15H78.7472L86.0696 0.454545H90.75L93.2429 15H89.4645L87.8665 4.11932H87.7528L82.5256 15ZM82.9801 9.27557H90.8778L90.4233 11.946H82.5256L82.9801 9.27557ZM109.603 0.454545L107.188 15H104.205L99.8232 6.60511H99.7237L98.3246 15H94.8089L97.2237 0.454545H100.249L104.596 8.83523H104.717L106.094 0.454545H109.603ZM115.237 0.454545L117.126 5.04972H117.24L120.691 0.454545H124.761L119.179 7.72727L122.488 15H118.547L116.586 10.3551H116.473L112.978 15H108.88L114.612 7.72727L111.409 0.454545H115.237Z" fill="#FFD700"/>
</svg>
