<svg width="227" height="48" viewBox="0 0 227 48" fill="none" xmlns="http://www.w3.org/2000/svg">
<circle cx="24" cy="24" r="20" fill="#FCD400" stroke="#EAE7E7" stroke-width="8"/>
<path d="M73.9858 20.5653C73.9176 19.8778 73.625 19.3437 73.108 18.9631C72.5909 18.5824 71.8892 18.392 71.0028 18.392C70.4006 18.392 69.892 18.4773 69.4773 18.6477C69.0625 18.8125 68.7443 19.0426 68.5227 19.3381C68.3068 19.6335 68.1989 19.9688 68.1989 20.3438C68.1875 20.6562 68.2528 20.929 68.3949 21.1619C68.5426 21.3949 68.7443 21.5966 69 21.767C69.2557 21.9318 69.5511 22.0767 69.8864 22.2017C70.2216 22.321 70.5795 22.4233 70.9602 22.5085L72.5284 22.8835C73.2898 23.054 73.9886 23.2812 74.625 23.5653C75.2614 23.8494 75.8125 24.1989 76.2784 24.6136C76.7443 25.0284 77.1051 25.517 77.3608 26.0795C77.6222 26.642 77.7557 27.2869 77.7614 28.0142C77.7557 29.0824 77.483 30.0085 76.9432 30.7926C76.4091 31.571 75.6364 32.1761 74.625 32.608C73.6193 33.0341 72.4063 33.2472 70.9858 33.2472C69.5767 33.2472 68.3494 33.0312 67.304 32.5994C66.2642 32.1676 65.4517 31.5284 64.8665 30.6818C64.2869 29.8295 63.983 28.7756 63.9545 27.5199H67.5256C67.5653 28.1051 67.733 28.5937 68.0284 28.9858C68.3295 29.3722 68.7301 29.6648 69.2301 29.8636C69.7358 30.0568 70.3068 30.1534 70.9432 30.1534C71.5682 30.1534 72.1108 30.0625 72.571 29.8807C73.0369 29.6989 73.3977 29.446 73.6534 29.1222C73.9091 28.7983 74.0369 28.4261 74.0369 28.0057C74.0369 27.6136 73.9205 27.2841 73.6875 27.017C73.4602 26.75 73.125 26.5227 72.6818 26.3352C72.2443 26.1477 71.7074 25.9773 71.071 25.8239L69.1705 25.3466C67.6989 24.9886 66.5369 24.429 65.6847 23.6676C64.8324 22.9062 64.4091 21.8807 64.4148 20.5909C64.4091 19.5341 64.6903 18.6108 65.2585 17.821C65.8324 17.0312 66.6193 16.4148 67.6193 15.9716C68.6193 15.5284 69.7557 15.3068 71.0284 15.3068C72.3239 15.3068 73.4545 15.5284 74.4205 15.9716C75.392 16.4148 76.1477 17.0312 76.6875 17.821C77.2273 18.6108 77.5057 19.5256 77.5227 20.5653H73.9858ZM82.7578 33L79.1953 19.9091H82.8686L84.897 28.7045H85.0163L87.13 19.9091H90.7351L92.8828 28.6534H92.9936L94.9879 19.9091H98.6527L95.0987 33H91.255L89.005 24.767H88.843L86.593 33H82.7578ZM100.589 33V19.9091H104.22V33H100.589ZM102.413 18.2216C101.874 18.2216 101.411 18.0426 101.024 17.6847C100.643 17.321 100.453 16.8864 100.453 16.3807C100.453 15.8807 100.643 15.4517 101.024 15.0938C101.411 14.7301 101.874 14.5483 102.413 14.5483C102.953 14.5483 103.413 14.7301 103.794 15.0938C104.18 15.4517 104.374 15.8807 104.374 16.3807C104.374 16.8864 104.18 17.321 103.794 17.6847C103.413 18.0426 102.953 18.2216 102.413 18.2216ZM118.021 23.642L114.697 23.8466C114.64 23.5625 114.518 23.3068 114.33 23.0795C114.143 22.8466 113.896 22.6619 113.589 22.5256C113.288 22.3835 112.927 22.3125 112.506 22.3125C111.944 22.3125 111.469 22.4318 111.083 22.6705C110.697 22.9034 110.504 23.2159 110.504 23.608C110.504 23.9205 110.629 24.1847 110.879 24.4006C111.129 24.6165 111.558 24.7898 112.165 24.9205L114.535 25.3977C115.808 25.6591 116.756 26.0795 117.381 26.6591C118.006 27.2386 118.319 28 118.319 28.9432C118.319 29.8011 118.066 30.554 117.56 31.2017C117.06 31.8494 116.373 32.3551 115.498 32.7188C114.629 33.0767 113.626 33.2557 112.489 33.2557C110.756 33.2557 109.376 32.8949 108.347 32.1733C107.325 31.446 106.725 30.4574 106.549 29.2074L110.12 29.0199C110.228 29.5483 110.489 29.9517 110.904 30.2301C111.319 30.5028 111.85 30.6392 112.498 30.6392C113.134 30.6392 113.646 30.517 114.032 30.2727C114.424 30.0227 114.623 29.7017 114.629 29.3097C114.623 28.9801 114.484 28.7102 114.211 28.5C113.938 28.2841 113.518 28.1193 112.95 28.0057L110.683 27.554C109.404 27.2983 108.452 26.8551 107.827 26.2244C107.208 25.5937 106.898 24.7898 106.898 23.8125C106.898 22.9716 107.126 22.2472 107.58 21.6392C108.04 21.0312 108.685 20.5625 109.515 20.233C110.35 19.9034 111.327 19.7386 112.447 19.7386C114.1 19.7386 115.401 20.0881 116.35 20.7869C117.305 21.4858 117.862 22.4375 118.021 23.642ZM131.497 23.642L128.173 23.8466C128.116 23.5625 127.994 23.3068 127.807 23.0795C127.619 22.8466 127.372 22.6619 127.065 22.5256C126.764 22.3835 126.403 22.3125 125.983 22.3125C125.42 22.3125 124.946 22.4318 124.56 22.6705C124.173 22.9034 123.98 23.2159 123.98 23.608C123.98 23.9205 124.105 24.1847 124.355 24.4006C124.605 24.6165 125.034 24.7898 125.642 24.9205L128.011 25.3977C129.284 25.6591 130.233 26.0795 130.858 26.6591C131.483 27.2386 131.795 28 131.795 28.9432C131.795 29.8011 131.543 30.554 131.037 31.2017C130.537 31.8494 129.849 32.3551 128.974 32.7188C128.105 33.0767 127.102 33.2557 125.966 33.2557C124.233 33.2557 122.852 32.8949 121.824 32.1733C120.801 31.446 120.202 30.4574 120.026 29.2074L123.597 29.0199C123.705 29.5483 123.966 29.9517 124.381 30.2301C124.795 30.5028 125.327 30.6392 125.974 30.6392C126.611 30.6392 127.122 30.517 127.509 30.2727C127.901 30.0227 128.099 29.7017 128.105 29.3097C128.099 28.9801 127.96 28.7102 127.688 28.5C127.415 28.2841 126.994 28.1193 126.426 28.0057L124.159 27.554C122.881 27.2983 121.929 26.8551 121.304 26.2244C120.685 25.5937 120.375 24.7898 120.375 23.8125C120.375 22.9716 120.602 22.2472 121.057 21.6392C121.517 21.0312 122.162 20.5625 122.991 20.233C123.827 19.9034 124.804 19.7386 125.923 19.7386C127.577 19.7386 128.878 20.0881 129.827 20.7869C130.781 21.4858 131.338 22.4375 131.497 23.642ZM137.815 33.2472C136.979 33.2472 136.235 33.1023 135.582 32.8125C134.928 32.517 134.411 32.0824 134.031 31.5085C133.656 30.929 133.468 30.2074 133.468 29.3438C133.468 28.6165 133.602 28.0057 133.869 27.5114C134.136 27.017 134.499 26.6193 134.96 26.3182C135.42 26.017 135.942 25.7898 136.528 25.6364C137.119 25.483 137.738 25.375 138.386 25.3125C139.147 25.233 139.761 25.1591 140.227 25.0909C140.692 25.017 141.031 24.9091 141.241 24.767C141.451 24.625 141.556 24.4148 141.556 24.1364V24.0852C141.556 23.5455 141.386 23.1278 141.045 22.8324C140.71 22.5369 140.232 22.3892 139.613 22.3892C138.96 22.3892 138.44 22.5341 138.053 22.8239C137.667 23.108 137.411 23.4659 137.286 23.8977L133.928 23.625C134.099 22.8295 134.434 22.142 134.934 21.5625C135.434 20.9773 136.079 20.5284 136.869 20.2159C137.664 19.8977 138.585 19.7386 139.63 19.7386C140.357 19.7386 141.053 19.8239 141.718 19.9943C142.388 20.1648 142.982 20.429 143.499 20.7869C144.022 21.1449 144.434 21.6051 144.735 22.1676C145.036 22.7244 145.187 23.392 145.187 24.1705V33H141.744V31.1847H141.641C141.431 31.5938 141.15 31.9545 140.798 32.267C140.445 32.5739 140.022 32.8153 139.528 32.9915C139.033 33.1619 138.462 33.2472 137.815 33.2472ZM138.854 30.7415C139.388 30.7415 139.86 30.6364 140.269 30.4261C140.678 30.2102 140.999 29.9205 141.232 29.5568C141.465 29.1932 141.582 28.7812 141.582 28.321V26.9318C141.468 27.0057 141.312 27.0739 141.113 27.1364C140.92 27.1932 140.701 27.2472 140.457 27.2983C140.212 27.3437 139.968 27.3864 139.724 27.4261C139.479 27.4602 139.258 27.4915 139.059 27.5199C138.633 27.5824 138.261 27.6818 137.942 27.8182C137.624 27.9545 137.377 28.1392 137.201 28.3722C137.025 28.5994 136.937 28.8835 136.937 29.2244C136.937 29.7188 137.116 30.0966 137.474 30.358C137.837 30.6136 138.298 30.7415 138.854 30.7415ZM151.634 25.4318V33H148.004V15.5455H151.532V22.2188H151.685C151.981 21.446 152.458 20.8409 153.117 20.4034C153.776 19.9602 154.603 19.7386 155.597 19.7386C156.506 19.7386 157.299 19.9375 157.975 20.3352C158.657 20.7273 159.185 21.2926 159.56 22.0312C159.941 22.7642 160.129 23.642 160.123 24.6648V33H156.492V25.3125C156.498 24.5057 156.293 23.8778 155.879 23.429C155.469 22.9801 154.896 22.7557 154.157 22.7557C153.663 22.7557 153.225 22.8608 152.844 23.071C152.469 23.2812 152.174 23.5881 151.958 23.9915C151.748 24.3892 151.64 24.8693 151.634 25.4318ZM163.048 33V15.5455H174.81V18.5881H166.739V22.7472H174.205V25.7898H166.739V29.9574H174.844V33H163.048ZM183.59 33.2557C182.249 33.2557 181.096 32.9716 180.13 32.4034C179.17 31.8295 178.431 31.0341 177.914 30.017C177.403 29 177.147 27.8295 177.147 26.5057C177.147 25.1648 177.406 23.9886 177.923 22.9773C178.445 21.9602 179.187 21.1676 180.147 20.5994C181.107 20.0256 182.249 19.7386 183.573 19.7386C184.715 19.7386 185.715 19.946 186.573 20.3608C187.431 20.7756 188.11 21.358 188.61 22.108C189.11 22.858 189.386 23.7386 189.437 24.75H186.011C185.914 24.0966 185.658 23.571 185.244 23.1733C184.835 22.7699 184.298 22.5682 183.633 22.5682C183.07 22.5682 182.579 22.7216 182.158 23.0284C181.744 23.3295 181.42 23.7699 181.187 24.3494C180.954 24.929 180.837 25.6307 180.837 26.4545C180.837 27.2898 180.951 28 181.178 28.5852C181.411 29.1705 181.738 29.6165 182.158 29.9233C182.579 30.2301 183.07 30.3835 183.633 30.3835C184.048 30.3835 184.42 30.2983 184.749 30.1278C185.085 29.9574 185.36 29.7102 185.576 29.3864C185.798 29.0568 185.942 28.6619 186.011 28.2017H189.437C189.38 29.2017 189.107 30.0824 188.619 30.8438C188.136 31.5994 187.468 32.1903 186.616 32.6165C185.763 33.0426 184.755 33.2557 183.59 33.2557ZM197.676 33.2557C196.352 33.2557 195.207 32.9744 194.241 32.4119C193.281 31.8437 192.54 31.054 192.017 30.0426C191.494 29.0256 191.233 27.8466 191.233 26.5057C191.233 25.1534 191.494 23.9716 192.017 22.9602C192.54 21.9432 193.281 21.1534 194.241 20.5909C195.207 20.0227 196.352 19.7386 197.676 19.7386C199 19.7386 200.142 20.0227 201.102 20.5909C202.068 21.1534 202.812 21.9432 203.335 22.9602C203.858 23.9716 204.119 25.1534 204.119 26.5057C204.119 27.8466 203.858 29.0256 203.335 30.0426C202.812 31.054 202.068 31.8437 201.102 32.4119C200.142 32.9744 199 33.2557 197.676 33.2557ZM197.693 30.4432C198.295 30.4432 198.798 30.2727 199.202 29.9318C199.605 29.5852 199.909 29.1136 200.114 28.517C200.324 27.9205 200.429 27.2415 200.429 26.4801C200.429 25.7188 200.324 25.0398 200.114 24.4432C199.909 23.8466 199.605 23.375 199.202 23.0284C198.798 22.6818 198.295 22.5085 197.693 22.5085C197.085 22.5085 196.574 22.6818 196.159 23.0284C195.75 23.375 195.44 23.8466 195.23 24.4432C195.026 25.0398 194.923 25.7188 194.923 26.4801C194.923 27.2415 195.026 27.9205 195.23 28.517C195.44 29.1136 195.75 29.5852 196.159 29.9318C196.574 30.2727 197.085 30.4432 197.693 30.4432ZM206.48 33V19.9091H209.94V22.2188H210.094C210.366 21.4517 210.821 20.8466 211.457 20.4034C212.094 19.9602 212.855 19.7386 213.741 19.7386C214.639 19.7386 215.403 19.9631 216.034 20.4119C216.665 20.8551 217.085 21.4574 217.295 22.2188H217.432C217.699 21.4688 218.182 20.8693 218.881 20.4205C219.585 19.9659 220.418 19.7386 221.378 19.7386C222.599 19.7386 223.591 20.1278 224.352 20.9062C225.119 21.679 225.503 22.7756 225.503 24.196V33H221.881V24.9119C221.881 24.1847 221.688 23.6392 221.301 23.2756C220.915 22.9119 220.432 22.7301 219.852 22.7301C219.193 22.7301 218.679 22.9403 218.31 23.3608C217.94 23.7756 217.756 24.3239 217.756 25.0057V33H214.236V24.8352C214.236 24.1932 214.051 23.6818 213.682 23.3011C213.318 22.9205 212.838 22.7301 212.241 22.7301C211.838 22.7301 211.474 22.8324 211.151 23.0369C210.832 23.2358 210.58 23.517 210.392 23.8807C210.205 24.2386 210.111 24.6591 210.111 25.142V33H206.48Z" fill="#FFD700"/>
</svg>
